HIERARCHY
ROOT Hips
{
	OFFSET -0.179506 -22.333345 2.821913
	CHANNELS 6 Xposition Yposition Zposition Zrotation Yrotation Xrotation 
	JOINT LeftUpLeg
	{
		OFFSET 6.951974 -9.140623 -0.681533
		CHANNELS 3 Zrotation Yrotation Xrotation
		JOINT LeftLeg
		{
			OFFSET 3.427654 -37.519855 -0.449580
			CHANNELS 3 Zrotation Yrotation Xrotation
			JOINT LeftFoot
			{
				OFFSET -1.359570 -39.796059 -4.369333
				CHANNELS 3 Zrotation Yrotation Xrotation
				JOINT LeftToe
				{
					OFFSET 2.635814 -5.579078 11.928840
					CHANNELS 3 Zrotation Yrotation Xrotation
					End Site
					{
						OFFSET 0.000000 0.000000 0.000000
					}
				}
			}
		}
	}
	JOINT RightUpLeg
	{
		OFFSET -6.767048 -9.052170 -0.431982
		CHANNELS 3 Zrotation Yrotation Xrotation
		JOINT RightLeg
		{
			OFFSET -3.829005 -38.256897 -0.885003
			CHANNELS 3 Zrotation Yrotation Xrotation
			JOINT RightFoot
			{
				OFFSET 1.577377 -39.841461 -4.231180
				CHANNELS 3 Zrotation Yrotation Xrotation
				JOINT RightToe
				{
					OFFSET -2.537174 -4.814398 12.334795
					CHANNELS 3 Zrotation Yrotation Xrotation
					End Site
					{
						OFFSET 0.000000 0.000000 0.000000
					}
				}
			}
		}
	}
	JOINT Spine
	{
		OFFSET -0.253288 10.896323 -2.669631
		CHANNELS 3 Zrotation Yrotation Xrotation
		JOINT Spine1
		{
			OFFSET 0.548704 13.518043 0.109247
			CHANNELS 3 Zrotation Yrotation Xrotation
			JOINT Spine2
			{
				OFFSET 0.145701 5.292222 2.542457
				CHANNELS 3 Zrotation Yrotation Xrotation
				JOINT Neck
				{
					OFFSET -0.277840 21.387037 -4.285703
					CHANNELS 3 Zrotation Yrotation Xrotation
					JOINT Head
					{
						OFFSET 0.515184 6.496960 5.134897
						CHANNELS 3 Zrotation Yrotation Xrotation
						End Site
						{
							OFFSET 0.000000 0.000000 0.000000
						}
					}
				}
				JOINT LeftShoulder
				{
					OFFSET 7.884473 12.174932 -3.408961
					CHANNELS 3 Zrotation Yrotation Xrotation
					JOINT LeftArm
					{
						OFFSET 9.097692 3.046888 -0.886815
						CHANNELS 3 Zrotation Yrotation Xrotation
						JOINT LeftForeArm
						{
							OFFSET 25.961220 -1.277207 -2.745643
							CHANNELS 3 Zrotation Yrotation Xrotation
							JOINT LeftHand
							{
								OFFSET 24.923361 0.898606 -0.117091
								CHANNELS 3 Zrotation Yrotation Xrotation
								End Site
								{
									OFFSET 0.000000 0.000000 0.000000
								}
							}
						}
					}
				}
				JOINT RightShoulder
				{
					OFFSET -8.175920 11.883285 -3.861528
					CHANNELS 3 Zrotation Yrotation Xrotation
					JOINT RightArm
					{
						OFFSET -9.601238 3.255117 -0.914307
						CHANNELS 3 Zrotation Yrotation Xrotation
						JOINT RightForeArm
						{
							OFFSET -25.374195 -1.332924 -2.140099
							CHANNELS 3 Zrotation Yrotation Xrotation
							JOINT RightHand
							{
								OFFSET -25.529810 0.777228 -0.555919
								CHANNELS 3 Zrotation Yrotation Xrotation
								End Site
								{
									OFFSET 0.000000 0.000000 0.000000
								}
							}
						}
					}
				}
			}
		}
	}
}
MOTION
Frames: 13
Frame Time: 0.033333
277.453400 258.208374 81.592300 -38.056512 13.319894 92.920340 5.290985 -0.575775 39.805574 8.629106 -25.709469 -13.973648 0.375752 21.234563 -21.089071 nan nan nan 5.827043 8.255522 -37.056600 14.588360 -5.537937 19.094167 -0.545010 -7.458020 9.761367 nan nan nan 0.267162 -13.798795 2.010150 14.439717 -6.090663 6.386946 6.529291 -4.725009 -4.845384 -5.102167 0.493165 6.341921 1.183664 10.771775 -1.763048 -23.106126 -4.485943 6.945972 -66.709451 -13.623313 15.075627 14.067640 -12.795456 -16.451266 -7.560716 -11.520223 -15.124560 20.539999 -7.140382 -4.453769 53.479921 -10.747679 0.624354 -16.186155 4.130933 -12.053006 18.077822 1.859478 -7.981840 
276.266846 257.059723 81.388779 -39.067169 13.787479 92.696957 5.795856 0.054035 40.202402 7.580679 -25.792606 -12.427487 -0.152962 21.725957 -20.414034 nan nan nan 6.597505 8.634070 -37.612408 15.409072 -5.695493 22.426696 -1.040031 -7.214481 7.299066 nan nan nan 0.902570 -13.536433 1.793934 14.538222 -5.545786 6.229524 6.449108 -4.384295 -4.887431 -5.624449 0.675958 6.539008 1.017851 10.502132 -1.825113 -23.624987 -4.492401 6.992028 -67.296339 -13.130380 14.874971 12.761187 -11.444180 -16.124964 -9.156376 -12.074148 -15.117714 20.560677 -6.540797 -4.031456 53.456423 -10.554839 0.285676 -16.000383 3.589439 -12.174340 18.482196 2.601986 -8.392306 
275.057983 255.904846 81.142006 -39.967940 14.083621 92.190787 6.330169 0.685971 40.500273 6.125976 -25.709786 -10.146050 -0.567746 21.716143 -19.463120 nan nan nan 7.103603 9.241475 -38.063628 15.654783 -6.504092 26.201987 -0.667193 -6.689628 4.591267 nan nan nan 1.181371 -13.588890 2.062761 14.554370 -4.894022 5.556256 6.441360 -4.049021 -4.324321 -5.917451 1.068638 6.815915 0.728239 10.299892 -2.112688 -23.613105 -4.344266 6.834213 -68.337533 -12.626501 15.060571 11.664431 -10.044806 -15.861069 -10.139145 -12.737510 -15.881994 20.489898 -5.903830 -3.650325 53.608447 -10.393760 0.517338 -15.828574 3.443864 -11.911635 18.342330 3.123909 -9.024606 
273.968292 254.693375 81.019768 -40.459326 14.039444 91.746319 6.022971 0.612456 40.149583 4.580996 -25.524637 -6.791070 -1.063568 21.720749 -18.461114 nan nan nan 6.940246 9.711877 -38.244309 15.659483 -7.811272 29.358460 -0.138232 -5.797458 2.361684 nan nan nan 1.337659 -13.737541 2.357371 14.465243 -4.514070 5.403444 6.429091 -3.637194 -4.501486 -6.574444 1.166574 7.736976 0.700205 10.406101 -2.782979 -23.920581 -4.223263 6.957010 -69.070569 -12.149206 15.234006 10.836247 -8.664751 -16.295538 -10.585653 -13.443624 -16.315075 20.617807 -5.188768 -3.192189 53.481209 -10.094511 0.750448 -15.720856 3.032453 -12.238476 18.241518 3.830292 -8.380114 
272.916901 253.420197 81.057892 -41.387336 13.898729 91.107089 4.941555 0.240660 39.805798 3.050933 -25.092990 -3.114601 -1.625819 22.209704 -17.386878 nan nan nan 6.761261 10.342268 -37.907125 15.705524 -8.691829 31.968237 0.205187 -5.120571 0.600898 nan nan nan 1.498447 -13.702715 2.513565 14.307794 -4.170854 6.015237 6.395904 -3.065388 -5.160033 -7.364500 0.980282 8.613659 0.592581 10.665799 -3.471577 -24.346323 -4.089765 7.155450 -69.576002 -11.449021 15.433494 10.277921 -7.592676 -16.757821 -11.063323 -13.464329 -16.566598 20.921151 -4.317334 -2.768715 53.042236 -9.613887 1.052618 -15.792242 2.411224 -13.055177 18.437647 3.955744 -7.105547 
271.844849 252.125702 81.026260 -42.123544 14.056252 90.566998 4.567196 -0.142453 38.960902 0.942034 -24.638730 1.253665 -1.978317 22.311774 -16.358213 nan nan nan 6.935329 10.835721 -37.252833 16.119525 -9.132567 33.835758 -0.176589 -4.855287 -1.030185 nan nan nan 2.071993 -13.367656 2.740746 14.271459 -4.055858 6.018934 6.241769 -2.723456 -5.318427 -7.597636 0.916868 8.777205 0.022806 10.667684 -3.676787 -24.443152 -3.894729 7.228944 -70.326007 -10.803307 15.515988 9.791475 -6.634967 -16.877913 -11.617340 -13.150214 -17.006840 20.692815 -3.642601 -2.693898 53.022707 -9.459642 1.585846 -15.955566 3.072367 -13.276537 18.371496 4.462480 -7.347724 
270.728973 250.809402 81.125366 -43.183130 13.499643 89.758447 3.766229 0.108031 37.978786 -1.505367 -24.160757 6.170883 -2.056597 22.278044 -15.034319 nan nan nan 6.894717 11.001303 -35.998203 16.637975 -8.692547 35.549107 -0.781276 -4.562013 -2.923012 nan nan nan 1.849098 -12.919234 2.600003 13.960491 -3.853243 7.268298 6.152295 -2.382172 -6.084307 -7.836997 0.855674 9.122344 -0.396885 10.955817 -4.243592 -24.501602 -3.812954 7.398356 -70.778180 -9.923481 15.641532 9.681158 -6.107223 -17.042437 -11.235882 -11.874167 -17.437146 20.831839 -3.085984 -2.611405 52.679686 -9.076909 2.331923 -15.729498 3.604910 -13.727236 17.342742 4.432925 -7.532439 
269.633423 249.605713 81.135292 -43.809854 13.389075 89.133620 3.876555 0.162121 36.078454 -4.490902 -23.224280 12.390586 -2.115799 21.325775 -13.800333 nan nan nan 7.530218 10.984355 -34.574095 16.849124 -8.135419 36.752445 -1.626417 -4.449228 -4.767988 nan nan nan 1.998472 -12.546861 3.075139 13.850371 -3.818300 6.947871 6.064239 -2.129831 -5.863091 -8.227324 0.945570 9.437905 -0.858099 11.182571 -5.068329 -24.295619 -3.726101 7.350055 -71.571622 -9.078828 15.637277 10.003854 -5.586951 -17.160575 -10.946583 -9.722175 -17.637287 20.757936 -2.788197 -2.627100 52.330912 -8.438658 2.717891 -15.478941 4.360047 -13.630078 16.387695 3.870493 -7.577395 
268.553070 248.408340 81.130104 -44.412058 13.304253 88.533797 3.675684 -0.258126 33.929385 -7.391743 -21.651934 18.657695 -1.224060 19.917795 -11.638280 nan nan nan 8.316279 10.904225 -33.017713 16.832412 -7.484098 37.762535 -2.511465 -4.387061 -6.342588 nan nan nan 2.327329 -11.990361 3.911819 13.579195 -3.535032 5.581660 6.049453 -2.025441 -5.106032 -8.927529 0.763076 9.767773 -0.949574 11.374095 -5.815082 -24.471862 -3.480661 7.290681 -71.581701 -8.546497 15.080228 9.797922 -4.857105 -16.970081 -10.953053 -8.454347 -17.191729 20.590951 -2.937148 -2.666480 51.859331 -7.600201 2.309097 -14.967566 5.342502 -13.294529 15.753914 3.287050 -6.659811 
267.542816 247.257278 81.139175 -44.770370 12.963073 88.056212 3.329692 -0.792703 31.279831 -9.919950 -19.611208 24.965642 -0.226521 17.583986 -8.657297 nan nan nan 8.761527 10.572884 -31.525963 16.539734 -7.078114 38.552937 -3.525709 -4.085176 -7.443617 nan nan nan 2.516970 -11.355856 4.271340 13.235352 -3.719330 5.540159 5.810881 -1.819048 -5.159017 -9.200091 0.741384 9.759420 -1.126539 11.184361 -6.344089 -24.133000 -3.056418 7.190996 -71.657241 -8.335163 14.573014 9.675218 -3.958690 -16.920747 -11.090042 -7.740996 -16.819347 20.409635 -3.058898 -2.605189 51.916111 -6.182572 2.358259 -14.752600 5.695676 -12.851827 14.578879 2.714446 -5.709333 
266.607544 246.133621 81.162689 -44.725223 12.606794 87.804032 3.496750 -1.054662 27.918752 -11.919857 -17.220822 31.323881 0.295997 15.409600 -5.582538 nan nan nan 8.977471 9.953464 -30.110037 16.398059 -6.632577 38.994614 -4.583239 -3.894468 -8.615137 nan nan nan 2.840325 -10.703883 4.570451 12.807103 -3.972391 5.312042 5.545348 -1.734422 -5.246412 -9.482179 0.487746 9.760255 -1.397088 11.023054 -6.644056 -23.879071 -2.734698 7.163877 -71.501584 -8.234670 14.082627 9.638990 -2.948149 -16.313902 -11.163382 -7.466116 -17.170873 20.168622 -3.123038 -2.578910 52.269319 -4.430236 2.522425 -14.815467 4.878415 -11.772915 13.095647 1.912666 -5.235074 
265.654144 245.168182 81.166359 -44.706600 12.302562 87.665659 4.150742 -1.076659 23.961341 -13.143919 -14.426338 37.450028 0.047463 13.369321 -1.592151 nan nan nan 9.312031 9.539827 -28.906577 16.125396 -6.168023 39.461502 -5.453991 -3.831087 -9.924850 nan nan nan 3.030301 -10.175778 5.307085 12.303526 -3.781772 4.090278 5.447012 -1.714886 -4.774465 -9.815708 0.498780 9.621916 -1.388993 10.718264 -6.927754 -23.533802 -2.146558 7.027040 -71.144586 -8.082253 13.393711 9.648341 -2.502773 -15.517856 -11.354977 -6.898433 -16.323120 20.068242 -3.335494 -2.401105 52.349630 -3.310969 2.340784 -14.605064 5.964484 -11.169810 12.944848 2.056319 -4.788615 
264.829651 244.236847 81.192863 -44.586023 11.788609 87.648136 4.015985 -1.837953 19.986857 -16.021306 -12.792607 44.360239 0.429136 9.316270 2.088306 nan nan nan 9.328880 8.883812 -27.982884 15.771303 -5.812010 40.067149 -6.268370 -3.716039 -11.037554 nan nan nan 3.163193 -9.590107 6.132850 11.711119 -3.725338 2.951832 5.279138 -1.577145 -4.468316 -9.993999 0.570937 9.576968 -1.427141 10.252541 -7.696006 -23.161014 -1.662458 6.456994 -70.752272 -7.461756 12.775519 10.029793 -2.532872 -15.875434 -11.450152 -6.339717 -14.884658 19.943397 -3.171887 -2.213634 52.529303 -2.196420 2.082163 -14.633182 6.430599 -11.995038 12.909290 2.190605 -4.574743 
